<?xml version="1.0" encoding="UTF-8"?> <svg xmlns="http://www.w3.org/2000/svg" xmlns:xlink="http://www.w3.org/1999/xlink" width="49" height="108" viewBox="0 0 49 108"><defs><polygon id="century-plant-a" points=".183 0 48.183 0 48.183 108 .183 108"></polygon></defs><g fill="none" fill-rule="evenodd"><mask id="century-plant-b" fill="#fff"><use xlink:href="#century-plant-a"></use></mask><path fill="#837453" d="M12.8899834,78.1310818 C12.8802277,78.1199352 12.874653,78.1032152 12.8676847,78.0888175 C12.8964872,78.1064663 12.9252897,78.1245796 12.9545568,78.1426928 C12.9322581,78.1394417 12.9020619,78.1436217 12.8899834,78.1310818 M23.4502878,44.2834502 C23.3360069,44.4840893 23.1720183,44.5370357 22.9894475,44.430214 C22.7362641,44.2820568 22.4914427,44.119502 22.2512668,43.950445 C22.2289681,43.9346539 22.244763,43.801359 22.2791402,43.7786013 C22.3687997,43.7196171 22.4793642,43.692215 22.5811021,43.6527374 C23.6519055,43.2365971 24.3580318,42.4930248 24.6404823,41.3672165 C24.6581354,41.2956924 24.6734658,41.2232393 24.6971582,41.1545019 C24.7477949,41.0100603 24.9480188,40.9575783 25.0562606,41.0699734 C25.2086352,41.2269549 25.3466086,41.3969408 25.477149,41.5455624 C25.4511338,41.6482041 25.4571731,41.7443437 25.4148984,41.7759258 C24.5280595,42.4317184 23.983599,43.3517788 23.4502878,44.2834502 M23.1766639,53.2490458 C23.0503045,53.2862012 22.8932843,53.2731968 22.7664603,53.2304681 C22.6730844,53.1984216 22.596897,53.0939221 22.5300009,53.0080002 C22.0529011,52.3949363 21.5469988,51.8199566 20.8436598,51.4428294 C20.7121902,51.3722342 20.6290346,51.1562685 20.5839726,50.9904625 C20.5277612,50.7805346 20.5286903,50.5538867 20.5133599,50.3332766 C20.4761954,49.8186744 20.5189346,49.7935945 21.0434192,49.9412872 C21.2529343,50.0002714 21.4698823,50.0504312 21.6854367,50.0620422 C22.4031769,50.1019843 22.8440412,50.478647 23.034045,51.1520885 C23.1436804,51.5408268 23.2156867,51.9393183 23.2979132,52.3039056 C23.3151018,52.5565622 23.3471562,52.7767079 23.3360069,52.9949958 C23.3318259,53.0855621 23.250993,53.2267526 23.1766639,53.2490458 M20.3591271,42.6588307 C20.3693473,42.6277131 20.407441,42.5886999 20.435779,42.5854488 C20.4645815,42.5821977 20.5119663,42.6114576 20.5268321,42.6393242 C20.5946574,42.7679747 20.6541206,42.9012697 20.7131194,43.0262047 C20.656908,43.087511 20.6197434,43.139993 20.5695713,43.1762195 C20.5519182,43.1892239 20.4980296,43.1720396 20.4729435,43.1520685 C20.3057031,43.0187736 20.2982702,42.8441432 20.3591271,42.6588307 M19.2850719,31.1987151 C19.2014516,31.1689907 19.0880998,31.0282647 19.1011074,30.9609206 C19.1261934,30.83227 19.2228212,30.711515 19.3101579,30.6046933 C19.3501098,30.5563913 19.4402338,30.5494246 19.4917996,30.5294536 C19.8745944,30.4602517 20.1208095,30.6878284 20.3763157,30.8903253 C20.4952422,30.9846071 20.6006966,31.1160443 20.4873448,31.2465526 C20.4046537,31.3426922 20.235555,31.4332585 20.1189512,31.4183963 C19.8355716,31.3812409 19.5554439,31.2948546 19.2850719,31.1987151 M20.0241817,37.1612263 C19.528035,38.0785 19.4100376,39.045469 19.5861046,40.0625978 C19.601435,40.1508419 19.5405781,40.2516259 19.515492,40.3454432 C19.4142186,40.3240789 19.3319921,40.32733 19.2734579,40.2915679 C18.758729,39.9789982 18.2068356,39.7946146 17.6010536,39.7653547 C17.4310258,39.7569948 17.3450828,39.6255576 17.3831764,39.4551072 C17.4231283,39.275368 17.4890954,39.1016666 17.5401966,38.9242496 C17.9002281,37.6530708 17.6670206,36.5142581 16.7806463,35.5203514 C16.683554,35.4112074 16.5808869,35.3025279 16.5046996,35.1794507 C16.4786844,35.1357931 16.4986604,35.0168958 16.5381477,34.9867071 C16.7142147,34.854341 16.8949273,34.7173305 17.0951513,34.6267643 C17.4881663,34.4488828 17.6646978,33.9705072 18.1287901,33.9003764 C18.2142685,34.2932946 18.2658343,34.6973595 18.3921937,35.0768089 C18.6323696,35.7990168 19.0156289,36.4069719 19.797478,36.6772773 C20.1305652,36.7924591 20.1658715,36.8992808 20.0241817,37.1612263 M23.4377448,36.4483073 C23.5404118,36.3424144 23.6611966,36.2537059 23.7787295,36.164533 C24.122966,35.9030519 24.3459533,35.5686534 24.339914,35.1292909 C24.3361976,34.8120768 24.5015798,34.6541664 24.7677708,34.5626712 C25.1482428,34.4326273 25.4204731,33.9338162 25.8357868,34.0731489 C26.1535437,34.1795062 26.3848929,34.5408424 26.6561941,34.7874613 C26.7110118,34.8371566 26.7695459,34.8836009 26.8294738,34.9272585 C27.4608064,35.3856631 27.9453391,35.2323971 28.1845858,34.4985782 C28.4568161,33.6625819 28.4572807,33.6788374 29.3208917,33.6704774 C29.6693093,33.6676907 29.8848636,33.7912324 30.0195851,34.0968355 C30.0939142,34.2658925 30.1742825,34.431234 30.2690521,34.6351242 C30.219809,34.7530926 30.1872901,34.9003208 30.1050635,35.0103937 C29.9722003,35.1878106 29.7654725,35.3178545 29.6637346,35.5078114 C29.3543398,36.08372 28.9385615,36.232806 28.304906,36.0456357 C27.8138695,35.9011941 27.3590685,36.1770729 26.9576914,36.4441273 C26.5581726,36.7102528 26.1934955,37.0288602 25.8144172,37.3261034 C25.6518223,37.4533606 25.4790072,37.4807627 25.3034048,37.3646521 C24.7626607,37.0061026 24.155485,36.8630543 23.5222941,36.789208 C23.4684055,36.7836347 23.3959347,36.7032861 23.381998,36.6452308 C23.3675967,36.5862466 23.3940765,36.4928937 23.4377448,36.4483073 M30.6374456,40.5186803 C30.8241974,40.7467215 30.9928315,40.991947 31.1512454,41.241817 C31.3087301,41.4907582 31.5354338,41.7420215 31.569811,42.0127914 C31.6092983,42.3244322 31.2009529,42.4256807 31.0332479,42.6588307 C30.8381341,42.9296006 30.6383747,43.1961906 30.4372216,43.462316 C30.325728,43.6109376 30.162204,43.6313731 30.0757964,43.4980781 C29.5870827,42.7433592 29.0068513,42.0778133 28.255663,41.5706422 C28.1251226,41.4833271 28.1469567,41.2933701 28.2821428,41.2014106 C28.4043212,41.1192043 28.5204604,41.008667 28.6565755,40.9687249 C28.9408843,40.8855897 29.2423816,40.8623676 29.5234384,40.7731947 C29.8040307,40.6840217 30.0688281,40.5442246 30.3763647,40.4113941 C30.4455836,40.4378673 30.579376,40.4466917 30.6374456,40.5186803 M26.4002233,12.7566371 C26.2943044,12.9075809 26.168874,13.0445914 26.0508766,13.1867108 C25.4757553,13.8791944 25.0437175,14.6450598 24.843029,15.5316803 C24.8114392,15.6737997 24.7621961,15.816848 24.6953,15.9459629 C24.6195772,16.0936556 24.4602342,16.1526398 24.3199381,16.0987645 C24.0825496,16.0072693 23.8595623,15.8781543 23.6365751,15.7541482 C23.377817,15.6115644 23.1190589,15.6231755 22.9179058,15.8205635 C22.6563603,16.0760068 22.4361604,16.372321 22.1973782,16.650522 C22.0649795,16.8056458 21.9088885,16.872061 21.7109873,16.7749926 C21.6445557,16.7420172 21.5734785,16.7183306 21.5089051,16.6825685 C20.7581814,16.2696793 19.99445,16.1312754 19.1740428,16.5019005 C18.8915923,16.6296221 18.6514164,16.4117986 18.7057696,16.1136266 C18.7234227,16.0151648 18.7814923,15.8841921 18.8595379,15.8456434 C19.0202745,15.7657593 19.2098137,15.7439305 19.3840224,15.6872685 C20.0181424,15.4801272 20.4952422,15.1201844 20.6513333,14.4235208 C20.7163713,14.136031 20.8199674,14.0282804 21.1177483,14.1146666 C21.2232027,14.1448554 21.3356254,14.171793 21.4438671,14.1703997 C21.8870543,14.1657553 22.2456921,13.8805877 22.2777465,13.443083 C22.3070136,13.0413403 22.2610225,12.6340243 22.2563769,12.4872605 C22.1736858,12.0488269 22.1411669,11.8663011 22.1058605,11.6851686 C22.0505783,11.4041809 22.1732213,11.1835708 22.3372098,10.972714 C22.4905135,10.7753259 22.6600768,10.7613927 22.7673894,10.9536718 C22.911402,11.2119018 23.0293994,11.4868517 23.1938525,11.7311484 C23.3768879,12.0056338 23.5738599,12.2810481 23.8107839,12.507696 C24.1819647,12.8629944 24.7923923,12.7826459 25.0636935,12.3507145 C25.2397605,12.0725135 25.3577579,11.7576216 25.513849,11.4654873 C25.5287148,11.4371563 25.6671527,11.4301897 25.6852704,11.4561985 C25.9365956,11.8184635 26.1804879,12.1858374 26.4150891,12.5583202 C26.4448207,12.6047645 26.4336714,12.7087996 26.4002233,12.7566371 M17.3776018,15.09882 C17.2549588,15.1694153 17.0984031,15.1810263 17.1272057,15.1735953 C16.8415033,15.2074996 16.7314033,15.2274706 16.6208388,15.2307217 C16.3634743,15.2395461 16.2073833,15.0797779 16.2138871,14.8234057 C16.2162098,14.7495594 16.2008795,14.6687464 16.2264301,14.6037245 C16.3723009,14.2191662 16.1609276,13.688773 16.6881995,13.458874 C17.1527563,13.6135333 17.1225601,14.1025911 17.3371853,14.4263075 C17.4175536,14.5470625 17.4849144,14.6910396 17.5048903,14.8317657 C17.5169688,14.9162942 17.4510017,15.0570202 17.3776018,15.09882 M48.1400863,83.7331857 C48.0713319,83.5385844 47.9036269,83.4234027 47.7099068,83.453127 C47.3828588,83.5037512 47.0446615,83.5594843 46.7436287,83.6885993 C45.5460013,84.1994859 44.2958791,84.5519976 43.0606226,84.9486314 C43.0006948,84.9676736 42.8952404,84.952347 42.8613278,84.911476 C42.8292734,84.8729273 42.8385645,84.7572812 42.8747999,84.7131592 C43.0629454,84.4855824 43.2627048,84.26683 43.4638579,84.0503999 C43.9943817,83.4796002 44.5360549,82.9180894 45.0554294,82.3370719 C45.1989774,82.1768393 45.3100065,81.9720202 45.3815483,81.76813 C45.4442634,81.5888553 45.3899103,81.3779984 45.2054812,81.2874322 C45.0888775,81.2298413 44.909094,81.2135858 44.7929548,81.2623523 C44.5913372,81.3478097 44.4134119,81.4917868 44.2331639,81.6227596 C41.7672966,83.4062183 39.2800597,85.1632038 36.929867,87.1008574 C36.2567242,87.6558661 35.4627967,87.9572892 34.6595781,88.2480301 C34.6349566,88.2573189 34.585249,88.228988 34.5634148,88.2043725 C34.5471553,88.1853304 34.5425098,88.1337773 34.556911,88.1138062 C34.6632945,87.9651847 34.7631742,87.8082032 34.8886045,87.676766 C35.7340979,86.7901455 36.6004962,85.9221027 37.4320529,85.0224778 C38.8433763,83.4958557 40.2426213,81.958087 41.6307169,80.410565 C42.7214962,79.1946548 43.7895122,77.9578448 44.8644966,76.7280014 C45.1580964,76.3931384 45.4516963,76.0564177 45.7225329,75.7034415 C45.8312392,75.5617865 45.9297252,75.376474 45.94041,75.2055592 C45.9506303,75.0402178 45.8879151,74.8121765 45.7713114,74.7137148 C45.6570304,74.6171107 45.4084925,74.5845998 45.2644799,74.6407973 C45.031737,74.7332213 44.81897,74.9022784 44.6252498,75.0699421 C42.5472874,76.8664052 40.4744351,78.6698349 38.3997246,80.4709425 C38.2320196,80.6167774 38.0680311,80.7681856 37.8924286,80.9038028 C37.8524767,80.9349204 37.7707147,80.9116983 37.7079996,80.9135561 C37.7056768,80.845283 37.6810553,80.7672567 37.7061413,80.7101303 C37.7939426,80.5057757 37.8942868,80.3069943 37.997883,80.1100707 C39.0538205,78.1060019 40.1181201,76.1075063 41.165231,74.0987931 C41.7659029,72.946976 42.3414888,71.78169 42.9217202,70.6187263 C43.0536543,70.3535297 43.1679353,70.0781154 43.2696732,69.7999144 C43.3611909,69.5491155 43.3588681,69.2932078 43.25202,69.0391578 C43.1163695,68.7159059 42.6685367,68.5802887 42.420928,68.8213343 C42.2104838,69.0261534 42.0246611,69.2616257 41.8569561,69.5040646 C39.9322974,72.2809656 38.0136779,75.0629754 36.0908775,77.8417342 C35.9659117,78.0233311 35.8191118,78.1905304 35.6788156,78.3605163 C35.657446,78.3860606 35.5872979,78.4106761 35.5821878,78.403245 C35.5408423,78.3498341 35.4790562,78.28667 35.4818435,78.2290791 C35.4888119,78.0823153 35.5176144,77.9350871 35.5505979,77.79111 C36.025375,75.7275925 36.3542812,73.6385307 36.6585658,71.5452889 C36.7598392,70.8486253 36.848105,70.1477817 36.888986,69.4450804 C36.9145366,69.0057179 36.8555379,68.5584599 36.8067594,68.1172397 C36.7802797,67.877123 36.5563633,67.658835 36.3798318,67.6639439 C36.1271129,67.671375 35.9742737,67.8408965 35.886937,68.0536111 C35.7889156,68.2923344 35.7141219,68.5426689 35.6444384,68.7925389 C34.2377605,73.8702874 32.8347991,78.9498937 31.4248693,84.0271778 C31.316163,84.4196316 31.1698276,84.8014032 31.0318543,85.1850326 C31.0202403,85.2166147 30.9389429,85.2226524 30.8896999,85.2403013 C30.8794796,85.2050036 30.8567164,85.1692416 30.8608974,85.1367306 C30.8966682,84.8427386 30.93151,84.5482821 30.9779657,84.2561479 C31.1503162,83.1558839 31.3458946,82.0597999 31.4973401,80.9576781 C31.9572513,77.6132285 32.4004385,74.2669212 32.8501295,70.9210783 C33.0475661,69.4501893 33.2459318,67.9797647 33.4382583,66.5084113 C33.4670608,66.2896589 33.4796039,66.0653332 33.4717064,65.845652 C33.4642735,65.6412974 33.2412863,65.430905 33.0373458,65.3960718 C32.8152877,65.3584519 32.5444511,65.4587715 32.4631537,65.6477995 C32.3470145,65.9194983 32.2494576,66.2009504 32.1644437,66.4837958 C31.4931591,68.723337 30.828843,70.9652003 30.1584875,73.2052059 C29.5090372,75.3750807 28.9450653,77.5663198 28.4698237,79.7812455 C28.3639048,80.2768056 28.3313858,80.7965166 28.0624074,81.2488835 C27.7492962,80.7119881 27.9959758,80.1630172 28.0726277,79.6377329 C28.3838807,77.5091934 28.7165033,75.3825118 29.0927943,73.2641901 C29.4235587,71.4022406 29.822613,69.5514377 30.190542,67.695526 C30.2625483,67.3327965 30.3861204,66.9649581 30.243966,66.6008353 C30.198904,66.4837958 30.0581433,66.3551453 29.9401459,66.329601 C29.8179674,66.3031277 29.6326093,66.3579319 29.5434144,66.4466404 C29.4175195,66.5701821 29.3292537,66.7489924 29.2697905,66.9199072 C28.9427425,67.8664408 28.6203401,68.8152966 28.3137326,69.7687968 C28.1771529,70.1928327 26.9065902,73.5266 25.9890906,75.9217294 C25.984445,75.8701763 25.9811931,75.8181587 25.9765475,75.7661412 C25.7558831,73.1053508 25.2388314,70.4714981 25.2606655,67.7874856 C25.2680985,66.8237676 25.190982,65.8577275 25.2332567,64.8963318 C25.3396402,62.4886625 25.4999123,60.0833154 25.6244135,57.6761106 C25.7326552,55.5865843 26.1976765,53.56626 26.7774434,51.5673 C26.7867345,51.5352535 26.8280801,51.4837004 26.8424813,51.4878803 C26.9000864,51.5027425 26.9860294,51.5222491 27.0036825,51.5640489 C27.1760331,51.9736871 27.3121482,52.4000452 27.5086557,52.7962145 C27.6614949,53.1050687 27.9216467,53.332181 28.304906,53.3066367 C28.5604123,53.2894523 28.8832792,53.1278264 29.0500551,53.2323259 C29.2707196,53.3698008 29.368741,53.7037349 29.5178638,53.9540694 C29.5750042,54.0497445 29.6247118,54.1495996 29.6855688,54.2424881 C30.2927445,55.1746239 31.5410085,55.0125335 31.9851248,54.1737506 C32.1407513,53.8792941 32.2443474,53.5425734 32.4520043,53.2927034 C32.9704497,52.6698862 32.9425763,51.9815826 32.7344548,51.2886346 C32.4664056,50.3969052 32.072926,49.5511556 31.4978047,48.8112989 C31.0783099,48.2725458 30.5584709,47.8694098 29.8411953,47.7802368 C29.5485245,47.7440103 29.2581765,47.6627329 28.9761906,47.5721666 C28.4461313,47.4007874 28.0187391,47.5484801 27.6930848,47.9739093 C27.1969382,48.6218064 26.7161219,49.2808502 26.2376284,49.9417517 C26.04205,50.2120571 25.8841007,50.5097647 25.6843413,50.7763546 C25.5691312,50.9296206 25.3888832,50.9876759 25.1863365,50.9412317 C24.9238619,50.8813186 24.6864734,50.793539 24.5773025,50.5167313 C24.4425811,50.1711862 24.3352685,49.8107789 24.1670989,49.4824181 C23.8163586,48.7973656 23.6282131,48.1155642 23.9831344,47.3701342 C24.06118,47.2066505 24.0639673,47.008798 24.1081002,46.8295233 C24.1257534,46.7575347 24.1480521,46.6813662 24.1917204,46.6251686 C24.2335305,46.5703644 24.2999622,46.5141669 24.3631419,46.501627 C24.4230697,46.4909448 24.5210912,46.5164891 24.5545393,46.56154 C24.6414114,46.6785795 24.7106303,46.8109456 24.7724164,46.944705 C25.1278023,47.7128927 26.2078968,47.9432561 26.9646598,47.3055767 C27.1063496,47.1866795 27.2057647,47.012978 27.3576748,46.9149807 C27.4663811,46.8448499 27.6308342,46.8346322 27.7674139,46.8443854 C27.8705455,46.8513521 27.9690315,46.9312362 28.0689112,46.9809315 C28.8117375,47.347841 29.4885967,47.3343721 30.0911268,46.6822951 C30.2997128,46.4561116 30.403309,46.4863004 30.6420911,46.7245593 C30.8525354,46.9340228 31.0550821,47.1513819 31.2683137,47.3575943 C32.1983563,48.2558258 33.9014214,47.9985247 34.4825819,46.9600316 C34.8630539,46.2786946 35.2955563,45.7571258 36.0342015,45.5049336 C36.1015623,45.4821759 36.1661357,45.429694 36.2149141,45.3762831 C36.7765633,44.7590392 37.1338074,44.81663 37.7265818,45.3474877 C37.7535261,45.3721031 37.7874388,45.3897519 37.8190286,45.4083296 C38.6129562,45.8732364 39.2898154,45.5718133 39.483071,44.6666151 C39.491433,44.6303886 39.5049051,44.5941621 39.5058343,44.5579356 C39.5313849,43.7349437 39.7553012,42.9514294 39.9369429,42.1549108 C40.1524973,41.2088416 39.9466986,40.307359 39.3529951,39.5238447 C38.7518586,38.7301127 37.944459,38.5800978 37.0966429,39.0974866 C36.8132632,39.2707236 36.5563633,39.4880826 36.2883141,39.6877928 C36.0434927,39.8703187 35.7712624,39.9706382 35.4627967,39.9794627 C35.3085639,39.9841071 35.1515437,39.8670676 35.1733778,39.726806 C35.2230854,39.3984452 35.2648955,39.0663689 35.3573423,38.7491548 C35.4093727,38.5717378 35.575684,38.4509828 35.7903092,38.4686316 C35.9008737,38.477456 36.0109737,38.5002137 36.1215382,38.5118247 C37.0813125,38.6135376 37.6109072,38.2735658 37.8506185,37.365581 C37.9453881,37.0084248 37.9964893,36.6377997 38.0420159,36.2704258 C38.2701133,34.415443 37.146815,32.6965417 35.3638461,32.1656841 C35.1924247,32.1145954 34.9954526,32.1350309 34.8825653,31.9473962 C34.8100945,31.8261767 34.9592172,31.7295727 35.3294689,31.5540135 C35.8037814,31.3287589 36.267409,31.3673076 36.7352177,31.5326491 C36.97911,31.6190354 37.2076719,31.750937 37.4524933,31.8354656 C38.0369058,32.0388913 38.6022713,31.8266412 38.8443054,31.2725614 C38.9748459,30.973925 39.0338446,30.6353465 39.0761192,30.3088435 C39.1039927,30.0938066 39.0403484,29.8671588 39.025018,29.6456197 C39.0087585,29.4068964 39.1430154,29.3075057 39.36879,29.3994653 C39.7107038,29.538798 40.0349644,29.760337 40.4233339,29.7059973 C40.9450311,29.6335442 41.4504689,29.5894222 41.9001598,29.9489006 C41.9512611,29.9897716 42.0418497,29.9855916 42.1152496,29.994416 C42.5143039,30.0436469 42.8585404,29.7231816 42.8218405,29.3349078 C42.8111557,29.224835 42.805581,29.1064021 42.760519,29.0084048 C42.584452,28.6215243 42.6007114,28.2183883 42.6072152,27.8078213 C42.6118608,27.5138292 42.5890975,27.2072973 42.5105874,26.9258452 C42.1816812,25.7452327 41.6409372,24.7206728 40.4377351,24.1870285 C40.1390251,24.0546624 39.8816607,23.8303367 39.6094304,23.642702 C39.1439445,23.3222368 38.6584827,23.2497838 38.1400374,23.5033693 C37.7409831,23.6988995 37.3335668,23.8781743 36.9447328,24.0922822 C36.504333,24.33565 36.3909811,24.8335323 36.6692506,25.2329527 C36.774705,25.3838965 36.9019936,25.5227648 37.0334631,25.6523442 C37.3317086,25.9458718 37.3400706,26.3118524 37.3070871,26.6880507 C37.2922213,26.8524633 37.1895542,26.9551051 37.0269593,26.9773983 C36.9563467,26.987616 36.8801594,26.963465 36.807224,26.9499962 C35.5617473,26.7187039 34.6247363,27.1097644 34.0435758,28.2783014 C33.8577531,28.6535708 33.7262835,28.6665752 33.3416305,28.4320318 C33.0568572,28.2587948 32.7776586,28.0739467 32.5114676,27.8723788 C32.1593335,27.6057888 31.7751451,27.5468046 31.3533276,27.6271532 C30.7758835,27.7367616 30.3150432,28.0163559 30.0112231,28.5281714 C29.916918,28.6879396 29.8490927,28.8644277 29.7459611,29.0176937 C29.659089,29.1472731 29.5252967,29.216475 29.36456,29.131482 C29.1020855,28.9916849 28.8419337,28.8504944 28.5836401,28.7032662 C28.4071085,28.6034111 28.3978174,28.4733672 28.5641287,28.3758343 C29.0769994,28.0767334 29.5982321,27.7934235 29.9229573,27.2607081 C29.9629091,27.1947573 30.1259686,27.1571375 30.2165571,27.1761796 C31.2645972,27.3972542 32.1184525,27.0679646 32.8157523,26.2830569 C33.0155117,26.0578024 33.2422154,26.0262203 33.5176975,26.117251 C33.9999075,26.2751614 34.4821174,26.1632308 34.9443514,26.0382958 C35.5361967,25.8775987 35.8836851,25.4512406 35.9589433,24.8423567 C36.0198003,24.3560855 35.9700927,23.8591322 35.7331688,23.4313807 C35.2741867,22.60328 34.6423895,21.9238008 33.7597316,21.5369203 C33.2807736,21.3265279 32.7618637,21.1779063 32.2475993,21.3910854 C31.7040679,21.6158755 31.1024669,21.772857 30.6704291,22.1773863 C30.2611546,22.5614802 30.1166774,23.1332087 29.9280674,23.6570997 C29.9029813,23.7267661 29.8899737,23.8010769 29.8648877,23.8707432 C29.8319041,23.9640961 29.8254003,24.1029644 29.6725612,24.0532691 C29.6112397,24.0332981 29.5508473,23.9645606 29.5215802,23.9027897 C29.315317,23.4676072 29.1202032,23.0268514 28.9153336,22.5902756 C28.8066274,22.3589833 28.5933958,22.1337287 28.5915376,21.9042942 C28.5887502,21.5815067 28.9994184,21.6669641 29.1894221,21.5085893 C29.2749006,21.4375296 29.384536,21.3869054 29.4495739,21.301448 C29.6971827,20.974945 29.9675547,21.0246403 30.329909,21.1258888 C31.0295315,21.321419 31.4573883,21.10824 31.7932628,20.4543051 C32.0139273,20.0274825 32.175593,19.5690779 32.3460854,19.1181044 C32.4510752,18.8417612 32.5100739,18.5473047 32.6173865,18.2714259 C32.6717397,18.1306999 32.7990282,18.037347 32.9723079,18.1009756 C33.3574254,18.242166 33.7416139,18.4140097 34.1508884,18.1971151 C34.4635351,18.0313092 34.7148603,18.0935445 34.9397058,18.3559544 C35.0354045,18.4683495 35.1422525,18.5761001 35.26025,18.6634153 C35.6709181,18.9662317 36.2502204,18.8645188 36.525238,18.432123 C36.6641405,18.2142995 36.7528709,17.9653584 36.8917733,17.7479994 C36.938229,17.6746175 37.0738796,17.6119177 37.1607517,17.6212066 C37.3038352,17.6356043 37.4469187,17.7001618 37.5788528,17.7656482 C38.0931171,18.0220204 38.7160878,17.4163875 38.5558157,16.8219013 C38.4986752,16.6077933 38.4052993,16.4034387 38.3272537,16.194904 C38.0536298,15.4601562 37.8561932,14.7114751 37.8636261,13.9172786 C37.8696653,13.1899619 37.6267021,12.7389883 36.6985177,12.5225582 C35.5951954,12.2657215 34.4867629,12.177013 33.5181621,12.9767828 C33.4359355,13.0450558 33.3165444,13.0673491 33.2189875,13.1202955 C32.2006791,13.6739108 31.8420413,14.5099071 32.1402867,15.6254977 C32.1872069,15.8038436 32.2420246,15.9807961 32.2726854,16.1614642 C32.2833702,16.2241639 32.248993,16.3328434 32.2025373,16.3556011 C32.1570108,16.3788232 32.0501627,16.3416678 32.0046361,16.2961525 C31.500592,15.7908392 30.9654227,15.3426523 30.2365331,15.1963529 C29.9852079,15.1461932 29.8909028,14.9553073 29.8444472,14.7170484 C29.7310953,14.1355665 29.6005549,13.5573358 29.4811638,12.9767828 C29.4514321,12.8318768 29.4226296,12.6841841 29.4179841,12.5374203 C29.4119448,12.3404968 29.4885967,12.1821219 29.6804586,12.0883045 C29.8662813,11.996345 30.0456003,11.9968094 30.1937939,12.1375354 C30.3545305,12.290337 30.4860001,12.4737917 30.6416266,12.632631 C30.8525354,12.8481323 31.1010732,12.999076 31.4044288,13.0654913 C31.8815286,13.1709197 32.2987006,12.9818917 32.5096093,12.5434581 C32.6591966,12.2332106 32.7098333,11.9057787 32.6601257,11.5676646 C32.5184359,10.6006956 32.2030019,9.69456853 31.6608641,8.87761439 C31.1224428,8.06576911 30.3289799,7.73044171 29.3826777,7.70907736 C29.1601551,7.7039685 28.9380969,7.74298166 28.7151097,7.74251721 C28.6096553,7.74205277 28.4586743,7.73229948 28.4061794,7.66541978 C28.1567124,7.34588342 27.9290796,7.00776937 27.7070215,6.66826199 C27.6758962,6.62088887 27.7014468,6.5214982 27.7265329,6.45647627 C27.9072455,5.9943561 28.1887669,5.60468895 28.6282376,5.36271447 C28.7838641,5.27772152 28.9789779,5.24288834 29.1592259,5.22895507 C29.5118245,5.20294629 29.8175029,5.41844756 29.9215636,5.75563272 C29.9759167,5.93165638 30.007042,6.11650445 30.0349154,6.29949475 C30.1282914,6.91255868 30.5329203,7.27761039 31.0425391,7.54745142 C31.3765554,7.72440396 31.8197425,7.62269108 32.0385488,7.30640582 C32.1602627,7.12991772 32.2754727,6.90884315 32.2842993,6.70355961 C32.3005588,6.29949475 32.2833702,5.88335438 32.2034664,5.48764947 C31.9795501,4.37252332 31.3463592,3.61734001 30.1956521,3.36375448 C30.088804,3.34006792 29.9759167,3.32288355 29.8825408,3.27179489 C29.8407307,3.24903721 29.8054244,3.12967552 29.8281877,3.0878757 C30.162204,2.47574065 30.649524,2.04427368 31.3370681,1.87475221 C31.6227705,1.80415697 31.9196223,2.01129827 32.003707,2.32293911 C32.0803589,2.60950005 32.1110196,2.9113876 32.2155449,3.18633749 C32.4724448,3.85931449 33.1581306,4.18767525 33.8447455,3.99771832 C34.1374163,3.91690535 34.3557579,3.65867539 34.3757339,3.35400119 C34.4040718,2.9387897 34.3464668,2.5245071 34.1425264,2.16642203 C33.8131556,1.58726238 33.4484786,1.02668043 33.0740458,0.475387329 C32.904018,0.225052887 32.6317878,0.042527033 32.3312195,0.0225560107 C31.2348656,-0.0489681155 30.1631331,-0.0020594353 29.384536,0.950047439 C29.2200829,1.15161543 29.0667791,1.36200783 28.9009324,1.56218249 C28.656111,1.85663896 28.5497275,1.8756811 28.2496238,1.68572417 C28.0926036,1.5863335 27.9499847,1.46232738 27.7859961,1.37826331 C27.3075027,1.13210885 26.7895219,1.01832047 26.2785094,1.20131077 C25.6996717,1.40938095 25.150101,1.46511404 24.5406026,1.31835024 C23.9947484,1.18737749 23.5274043,1.43631861 23.1780576,1.88543439 C22.8760957,2.2746371 22.6623995,2.71074849 22.5857477,3.19051747 C22.5402211,3.47382732 22.5732047,3.78500371 22.6391717,4.06738468 C22.7344058,4.47516509 23.1302082,4.74082613 23.5529549,4.74918609 C24.319009,4.76404825 24.7659126,4.45705183 25.0873859,3.7125507 C25.1891238,3.4780073 25.3006174,3.24485723 25.4413781,3.03353595 C25.4859756,2.96526292 25.644854,2.93275195 25.7400881,2.94947188 C25.8339286,2.9661918 25.9751539,3.05397141 25.9895551,3.13106885 C26.1001196,3.71347959 26.2557461,4.30099919 26.2552816,4.88712548 C26.2552816,5.39290322 26.0671361,5.89821653 25.9621463,6.40352984 C25.6927033,6.51731822 25.4223313,6.62739106 25.1552112,6.74628831 C25.0897087,6.77554818 25.0362846,6.83313904 24.9763568,6.87726106 C24.258152,7.40300984 23.5441283,7.93433192 22.8180261,8.44986296 C22.6428882,8.57340463 22.4305857,8.64446431 22.2350073,8.73874611 C22.1727567,8.81723688 22.1114352,8.89572764 22.0491846,8.9742184 C22.0496492,8.9742184 22.0505783,8.9742184 22.0515074,8.97375396 C22.0166656,9.07686017 22.0064454,9.19854407 21.9432657,9.28028593 C21.7421126,9.54223143 21.5683684,9.89381431 21.2966027,10.0159627 C20.9546889,10.1687642 20.7577168,9.71314622 20.4669043,9.57334907 C20.3010575,9.49346498 20.1570449,9.36945886 19.9990956,9.27192596 C19.5814591,9.01508933 19.1735782,8.98257836 18.7591936,9.29793474 C18.6207557,9.40289871 18.4372558,9.51482933 18.2769837,9.51157823 C17.5782903,9.49903829 17.076569,9.86501888 16.6347755,10.3299257 C16.3295617,10.6508554 16.0856694,11.0289115 15.791605,11.3609878 C15.7070556,11.4571274 15.5374924,11.5458358 15.4190304,11.532367 C14.9800243,11.4831361 14.5256878,11.4464452 14.1154841,11.2992169 C13.5320008,11.0888245 12.980572,10.9820028 12.3929077,11.254166 C12.2665482,11.3126858 12.0997723,11.3159369 11.9562243,11.3010747 C11.2998056,11.2337306 10.9193336,11.6113222 10.6178362,12.1138489 C10.5035553,12.3042702 10.4083211,12.5067671 10.3223781,12.7120507 C9.77791761,14.0059871 9.89126946,15.3305768 10.1783655,16.6514509 C10.2917174,17.1734841 10.9355931,17.3527589 11.3295372,16.9858494 C11.5409105,16.7893903 11.6914269,16.5246581 11.8554155,16.2812903 C12.0723635,15.9603606 12.223809,15.9185608 12.6014936,16.0207382 C13.0595466,16.1442798 13.3447845,16.4958627 13.6866982,16.7759215 C13.8715918,16.9282586 13.942669,17.10196 13.925945,17.3546167 C13.8980716,17.7958369 13.9008589,18.2426305 13.9315197,18.6838507 C13.979369,19.3744766 14.2901575,19.8797899 15.0027876,20.0781068 C15.17839,20.1264088 15.3358748,20.2401972 15.5026507,20.3205457 C15.8176201,20.4728828 16.1516365,20.4891383 16.4819363,20.4115764 C16.6956324,20.3604877 16.8958564,20.2532015 17.1035133,20.1765686 C17.26936,20.116191 17.3697043,20.1895729 17.3892157,20.3864965 C17.4101207,20.6080355 17.392003,20.8393278 17.4510017,21.0497202 C17.5202207,21.2944814 17.6233523,21.5415647 17.7650421,21.7519571 C18.0730432,22.2098973 18.5914886,22.2865303 19.0230618,21.9609562 C19.1401301,21.8717832 19.2414035,21.7584593 19.3357085,21.6446709 C19.5447591,21.393872 19.7793603,21.4017675 20.0213943,21.575469 C20.542627,21.9493451 21.0568914,21.9275163 21.5679038,21.562929 C21.8345594,21.3725077 22.0840264,21.2977325 22.363225,21.5550335 C22.7330122,21.8959342 23.1664436,21.906152 23.6110245,21.7226972 C23.852594,21.6228421 24.0825496,21.5164848 24.3584963,21.5680379 C25.0279226,21.6929729 25.4056073,21.3209546 25.6601844,20.769197 C26.0262551,19.9768583 26.2469196,19.1371465 26.0276488,18.2825725 C25.8738805,17.6829774 26.0155703,17.2798414 26.483379,16.9356896 C26.5716447,16.8706677 26.6366827,16.7717415 26.7277358,16.711364 C26.7755852,16.6797819 26.8731421,16.6714219 26.917275,16.6997529 C26.9697699,16.7331928 27.0255167,16.8256168 27.0152965,16.8799566 C26.8197181,17.924023 26.9549041,18.9522984 27.1588445,19.9750006 C27.2308508,20.3368012 27.3627849,20.6865263 27.4524444,21.0460047 C27.4923963,21.2062373 27.4166735,21.3376745 27.2512913,21.3794743 C27.0715078,21.4245252 26.8856851,21.442174 26.7040434,21.478865 C25.6866641,21.6841485 24.9568454,22.2396216 24.540138,23.207984 C24.1842875,24.0342269 23.925994,24.8906587 23.8758218,25.7823881 C23.8414446,26.4056697 23.9088054,27.044278 24.0124015,27.6619864 C24.1113521,28.2518282 24.6242228,28.5174892 25.1933048,28.3256745 C25.4330161,28.2443971 25.6420667,28.0744112 25.8710931,27.9569073 C25.9649336,27.9086053 26.1163791,27.83383 26.168874,27.8719143 C26.4030106,28.0391136 26.7137991,28.2058484 26.8002067,28.4441073 C26.893118,28.6986217 26.5089296,28.684224 26.3356499,28.7859369 C26.0806082,28.9354874 25.8162754,29.0766778 25.5426515,29.1890729 C24.7055202,29.5322958 24.1629179,30.1709041 23.7499269,30.9418784 C23.627284,31.1708485 23.5385536,31.4165385 23.4219499,31.6478308 C23.3439043,31.8024902 23.2087183,31.8368589 23.0503045,31.767657 C22.6103692,31.5763067 22.1708985,31.3826342 21.7300341,31.1922129 C21.5841633,31.1290487 21.5279519,30.9298029 21.6403747,30.8341278 C21.8094733,30.6901507 21.991115,30.5591779 22.1583555,30.413343 C22.7083907,29.9321807 22.9146539,29.3284056 22.7808615,28.6108421 C22.7190755,28.2824814 22.670297,27.9494762 22.5773857,27.6304043 C22.4096807,27.0568179 22.1574263,26.5189937 21.7713797,26.0554802 C20.9491142,25.0690046 19.7022438,25.0875823 18.9194657,26.108891 C18.7406113,26.3420411 18.6123937,26.6160621 18.4711684,26.8766143 C18.3833672,27.0377758 18.3322659,27.2230883 18.2268115,27.3698521 C18.185466,27.4269785 17.9829192,27.4571673 17.9504003,27.4181541 C17.5945498,26.9931893 17.1128044,26.8157723 16.6008629,26.6959462 C15.9946163,26.5533624 15.5128709,26.3192834 15.3233317,25.6281932 C15.1965077,25.1646797 14.8234687,24.8084524 14.4123359,24.5335025 C14.0676348,24.3031391 13.6913438,24.1038933 13.2709199,24.154982 C12.3283343,24.2692348 11.33186,24.1921373 10.5551211,24.9343163 C10.284749,25.1925462 10.0979972,25.1437798 9.94376438,24.8144901 C9.55260758,23.9798872 8.93195974,23.3607855 8.19796005,22.833179 C7.74362353,22.5052826 7.26698828,22.4281852 6.72810243,22.614891 C6.28630895,22.7672281 5.92627745,23.0161692 5.68238515,23.4030498 C4.88288295,24.6732997 4.58974763,26.068949 4.74769693,27.5533068 C4.77742857,27.8375456 4.91586648,28.1227132 5.0543044,28.3804787 C5.33025112,28.894152 5.87006608,29.1435575 6.37039372,28.8737165 C6.9487669,28.5616112 7.38684393,28.5095937 7.78450452,29.0980422 C7.84257412,29.1834996 7.95592597,29.2420193 8.05580567,29.2875347 C8.43860045,29.4630939 8.83068636,29.5601624 9.2278824,29.3316567 C9.54842657,29.1472731 9.86246694,28.9517428 10.1825466,28.7664303 C10.3358503,28.6767929 10.476611,28.732526 10.566735,28.861641 C10.6930944,29.0427735 10.7790374,29.2522371 10.9091133,29.4301185 C11.0981879,29.6892773 11.4047954,29.7812369 11.7016472,29.6725574 C11.8368332,29.6233265 11.970161,29.5434424 12.0774736,29.4477673 C12.2879178,29.2601326 12.4537646,29.2796392 12.6479493,29.4793494 C12.8007885,29.6372598 12.9796429,29.7798436 13.1701111,29.889452 C13.6309514,30.1555775 14.0866816,30.1411798 14.5219713,29.8100324 C14.9140572,29.5113959 15.2155546,29.1407709 15.4269279,28.6976929 C15.5226266,28.4975182 15.5946329,28.2861969 15.6880088,28.0841645 C15.7744164,27.8997809 15.9319011,27.8565877 16.156282,27.9234674 C16.4127174,28.0001004 16.6333818,28.1148177 16.7769299,28.3572566 C17.1193082,28.9350229 17.3831764,29.5457646 17.559708,30.1931973 C17.6029118,30.3506433 17.4602929,30.5085537 17.3241777,30.4495695 C16.8043387,30.2257083 16.2770668,30.058509 15.7047328,30.2057373 C14.5229004,30.5085537 13.7266501,31.1931418 13.5152768,32.4457428 C13.4841515,32.6282687 13.4660338,32.8126523 13.4409477,32.9956426 C13.4251528,33.1057155 13.4223654,33.2204327 13.3852009,33.3221456 C13.3633667,33.3820587 13.2922896,33.444294 13.2305035,33.4638005 C13.1710402,33.4823782 13.0660504,33.4721605 13.0316732,33.4312896 C12.8871961,33.2636259 12.7701277,33.0732045 12.6289025,32.9022897 C11.9752711,32.1094866 11.090755,31.904203 10.1291225,32.2961924 C9.41788612,32.5860044 8.85252053,33.0397646 8.44138779,33.6895195 C7.9405956,34.4832516 7.55408437,35.3271434 7.42075657,36.2583503 C7.34224648,36.8054634 7.28882245,37.3739409 7.35014394,37.9187318 C7.44073251,38.727326 7.63027168,39.5266313 7.80448046,40.3240789 C7.86673107,40.6101754 7.97776014,40.895343 8.11852084,41.1526441 C8.46508019,41.7866079 9.22323683,41.8330522 9.68268347,41.2571436 C9.82065683,41.0843711 9.95584285,40.8967364 10.0352821,40.6933106 C10.3897389,39.7927568 11.1980676,39.263757 11.7750472,38.5466579 C11.7973459,38.5183269 11.9608699,38.57406 12.0342698,38.6256131 C12.0853711,38.6618396 12.0951268,38.7570503 12.1206774,38.8262522 C12.4463317,39.7142661 12.8700075,40.5237891 13.7600982,40.9886959 C13.9143311,41.0699734 13.8957488,41.2520348 13.8223488,41.3857942 C13.328525,42.2817035 13.1078605,43.2472792 13.0400352,44.2606925 C13.0116973,44.6949461 13.1533871,45.0678933 13.361044,45.4208696 C13.5793856,45.7942812 14.1312791,45.9726271 14.5349789,45.8156456 C14.7407776,45.735297 14.9396079,45.6284753 15.1282179,45.5123647 C15.4599114,45.3089389 15.7544404,45.32473 16.0285289,45.6108265 C16.319806,45.9150362 16.6742628,46.0896666 17.0863247,46.1890572 C17.4802688,46.2842679 17.8119623,46.1110309 18.1696711,46.0362557 C18.2402837,46.021858 18.4126342,46.146793 18.4056659,46.1746595 C18.3731469,46.3074901 18.3192583,46.5109158 18.2277406,46.5378535 C18.0256585,46.5973021 17.796632,46.5703644 17.5782903,46.5717578 C17.1100171,46.5754733 16.6784438,46.7175927 16.3760174,47.0659245 C15.9151771,47.5958532 15.427857,48.1123131 15.1393673,48.7718213 C14.6822434,49.8149589 14.5433409,50.9189384 14.5795764,52.0368512 C14.6167409,53.171484 15.2745533,53.6210642 16.3634743,53.3414699 C16.3997098,53.332181 16.4368743,53.3224277 16.4679996,53.3033856 C16.7546311,53.1329352 16.958107,53.2527614 17.129993,53.4891625 C17.3632005,53.8105567 17.6888548,54.0060869 18.0749015,54.0005136 C18.7540835,53.9907603 19.3882035,53.7905856 19.9461361,53.3897719 C20.1226677,53.2625147 20.2676094,53.029829 20.4552903,52.9931381 C20.7409928,52.9378694 20.8882573,53.2383637 21.0424901,53.432965 C21.3871912,53.868612 21.7239949,54.3130833 22.0296732,54.7770613 C22.6456755,55.7133771 23.0275412,56.7630169 23.4391385,57.79733 C23.5938359,58.1860683 23.594765,58.595242 23.5562068,59.0053447 C23.3378651,61.332201 23.1399639,63.6599862 23.2328753,66.0017046 C23.2839765,67.2984278 23.2472765,68.6002597 23.3508727,69.8923384 C23.5654979,72.5865687 23.8223978,75.2770834 24.0718648,77.9685269 C23.4475005,75.7387391 22.8291754,73.506629 22.2192124,71.2721967 C21.9850758,70.4139072 21.7802062,69.5472578 21.5623291,68.6843238 C21.2808077,67.5696621 21.0002154,66.4550004 20.7200877,65.3398743 C20.6030194,64.8726452 20.4966359,64.4021651 20.3693473,63.9377227 C20.2903727,63.6511618 20.0292918,63.4913936 19.7826121,63.5480556 C19.5763489,63.5944998 19.417006,63.8007122 19.4039984,64.0408289 C19.4002819,64.1146753 19.4030693,64.1894505 19.4063212,64.2637613 C19.442092,65.0783932 19.4801857,65.8930251 19.5150275,66.7081215 C19.5512629,67.5603733 19.5796008,68.4130895 19.6200173,69.2648768 C19.6794805,70.5235156 19.7082831,71.7849411 19.8211704,73.0384711 C19.9308058,74.2576323 20.1333525,75.4688981 20.288979,76.6838793 C20.3163879,76.9021672 20.317317,77.1241707 20.3247499,77.3447808 C20.325679,77.3689318 20.2913018,77.4093383 20.2648221,77.4172338 C20.2341613,77.4265227 20.17795,77.4228072 20.1612259,77.4014428 C20.0483386,77.2583945 19.9256956,77.1185974 19.8374298,76.9602225 C18.4275001,74.4327271 17.0236095,71.9019806 15.6136797,69.3744852 C15.4887139,69.1501595 15.3474887,68.9295494 15.1811774,68.734948 C15.022299,68.5496355 14.793737,68.5347734 14.5656397,68.610013 C14.3542663,68.6796794 14.2190803,68.8835696 14.2395208,69.1334396 C14.2576385,69.3549786 14.2855119,69.5774465 14.3370777,69.7924833 C14.5024599,70.4775358 14.6938573,71.1560861 14.8513421,71.8429964 C15.1751381,73.2553657 15.6048531,74.6366173 16.102858,75.9941824 C16.4345515,76.8989161 16.8275666,77.7804278 17.1945664,78.6716927 C17.2791157,78.8774407 17.3771372,79.0780798 17.4519308,79.2866144 C17.4700486,79.3367742 17.4217347,79.4106205 17.4040815,79.4733202 C17.3687752,79.4617092 17.3223195,79.4612447 17.2995562,79.4380226 C17.0918994,79.2276302 16.8782032,79.0218823 16.6854122,78.7984855 C15.8854454,77.870994 15.1073128,76.9244605 14.2934094,76.0113668 C13.4037832,75.0132801 12.4853544,74.0421311 11.5743586,73.0644799 C11.4238422,72.9023895 11.2556727,72.7533035 11.0805348,72.6181508 C10.9341994,72.5048268 10.5565148,72.5141157 10.4561705,72.6580928 C10.358149,72.79789 10.2633794,73.0064246 10.296363,73.1564395 C10.3586136,73.4392849 10.489154,73.7151636 10.6331666,73.970607 C11.2710031,75.1015241 11.9227762,76.2250103 12.5722266,77.3484964 C12.6976569,77.5649265 12.8402758,77.7725323 12.8309847,78.0354066 C12.5889506,77.8236209 12.3218305,77.6322707 12.1113863,77.392154 C10.6169071,75.691366 9.13682927,73.9775736 7.64560205,72.2735345 C7.45234643,72.0529244 7.23632754,71.8439253 6.99940359,71.6739394 C6.90416945,71.6052019 6.70998472,71.6191352 6.58362528,71.6613995 C6.38851144,71.7273503 6.30256843,71.9200939 6.34066209,72.1109797 C6.38340131,72.3232298 6.45540761,72.5424466 6.56875946,72.7249725 C6.89952388,73.2618679 7.25444525,73.7843656 7.60565017,74.3077921 C8.74334969,76.0020779 9.83970366,77.7270169 11.0364019,79.3790384 C12.2544697,81.0617132 13.5733464,82.671006 14.8462319,84.3142032 C14.9358914,84.4303137 15.0125433,84.5571065 15.0873369,84.6834348 C15.0994154,84.7029414 15.0785103,84.7577456 15.055747,84.7777166 C15.0376293,84.7935077 14.9832762,84.7953655 14.9651585,84.7795744 C14.7700446,84.6114463 14.5721434,84.4461048 14.3886435,84.2659011 C13.0089099,82.9153027 11.6607662,81.5321933 10.2480491,80.2164281 C8.53708649,78.6229263 6.77548722,77.0828353 5.03014745,75.52556 C4.80994754,75.3291009 4.56791347,75.154935 4.32030471,74.9937735 C4.13355289,74.8725541 3.86085807,74.9389693 3.7187037,75.1173152 C3.57190376,75.2993766 3.48828354,75.5088401 3.60349362,75.7336302 C3.68664928,75.8971139 3.79721379,76.0503799 3.91149475,76.1952859 C6.42381775,79.378574 9.16423812,82.3491475 12.1833926,85.0605621 C12.3209014,85.1845682 12.4653785,85.3020721 12.595919,85.4330448 C12.640981,85.4776313 12.6544531,85.5537999 12.6823265,85.6155707 C12.584305,85.6248595 12.4728114,85.6685171 12.3905849,85.6364706 C12.1141736,85.52872 11.8484471,85.3944961 11.5799333,85.2681678 C8.95936859,84.0350733 6.34066209,82.7982632 3.71684547,81.5721354 C3.31453931,81.3845006 2.89457999,81.2307702 2.47276245,81.0900442 C2.22329546,81.0064445 1.94363229,81.1508861 1.80565893,81.3784629 C1.6769767,81.5897842 1.69044885,81.9204671 1.88091712,82.1025285 C2.12109297,82.3314986 2.38124476,82.5442133 2.65301047,82.7355635 C4.17025287,83.8051743 5.69492818,84.8654963 7.21588704,85.9304626 C9.25529125,87.3581585 11.3351119,88.7217613 13.5236388,89.9125916 C13.6532502,89.9831868 13.7712476,90.0737531 13.8897096,90.1610682 C13.9124728,90.1782526 13.9226931,90.2279479 13.9189766,90.2604589 C13.9161893,90.292041 13.893426,90.3426652 13.8711273,90.3473096 C13.2481567,90.4731735 12.6530594,90.52194 12.0584268,90.158746 C9.25064568,88.4454181 6.13811534,87.4134271 3.10084319,86.2151658 C2.9363901,86.1506083 2.73430791,86.1278506 2.56195734,86.1566461 C2.4421017,86.1766171 2.3120258,86.3015521 2.2465233,86.4139471 C2.20424863,86.4854713 2.23676761,86.6480261 2.29576632,86.721408 C2.40865361,86.8630629 2.55034343,86.9907846 2.7031826,87.087853 C4.27013258,88.0840819 5.84172812,89.0719509 7.41100088,90.0639998 C7.62980712,90.2024036 7.84071589,90.3533474 8.05255378,90.5024334 C8.13152843,90.557702 8.11155249,90.7444079 8.02235759,90.7797055 C7.85186525,90.8479785 7.68276659,90.9329715 7.50437679,90.9682691 C6.33880386,91.199097 5.17508916,91.4331759 4.04017698,91.7931188 C3.01536475,92.117764 1.98915885,92.4373003 0.969456747,92.7763433 C0.763193542,92.8450807 0.574118938,92.9783757 0.392012685,93.1028463 C0.225236806,93.2170991 0.143010258,93.5245599 0.201544411,93.7061569 C0.264259574,93.8998294 0.481672141,94.0609909 0.715808752,94.064242 C0.900237789,94.0670286 1.08513138,94.0433421 1.26956042,94.0340532 C1.90042851,94.0038645 2.5312966,93.9355914 3.16030646,93.9523114 C5.49888523,94.0154755 7.83328298,93.9848223 10.165358,93.7809321 C11.0517323,93.7033703 11.9422876,93.6699304 12.8319138,93.6295239 C13.165001,93.6141973 13.5064502,93.5956196 13.83164,93.6518172 C14.1131614,93.7005836 14.3816752,93.8431674 14.6436852,93.9704246 C14.6845662,93.9899312 14.6985029,94.2035747 14.658551,94.2314412 C14.4462486,94.3768117 14.2148993,94.4961734 13.9858728,94.6169284 C12.8054341,95.2420679 11.6143105,95.8467718 10.4450211,96.4914179 C8.0985449,97.7862832 5.93603315,99.355634 3.83809478,101.014622 C3.63554803,101.174855 3.44833166,101.358774 3.27830388,101.552911 C3.10781155,101.746583 3.11385078,102.09538 3.27180009,102.276512 C3.42835572,102.455787 3.63601259,102.530562 3.8701492,102.499909 C3.97746181,102.485511 4.08338076,102.439067 4.18465413,102.394945 C4.66128938,102.189197 5.13653095,101.979269 5.61177252,101.769341 C6.52834302,101.366669 7.42726037,100.918018 8.36427137,100.569222 C10.8319969,99.6491616 13.2867149,98.6979836 15.6824341,97.6014351 C15.816691,97.5401287 15.9467669,97.4667468 16.0865985,97.4198382 C16.1474554,97.3989383 16.2417605,97.4110138 16.2919326,97.4472403 C16.3267744,97.4727846 16.3369946,97.5758908 16.315625,97.6260506 C16.2714921,97.7259057 16.2036668,97.8174008 16.1372352,97.9061093 C15.0088268,99.4271581 13.876702,100.944491 12.7510809,102.467398 C12.5754785,102.705192 12.4147418,102.955991 12.2744457,103.216543 C12.1833926,103.384672 12.1987229,103.573235 12.318114,103.741828 C12.4435443,103.919245 12.6967278,104.036284 12.9043847,103.941074 C13.169182,103.820783 13.4321211,103.673555 13.6541793,103.488707 C15.4524785,101.988558 17.1913145,100.426638 18.7215645,98.6464305 C18.8609315,98.4838757 18.9989049,98.3124964 19.2376871,98.2971698 C19.216782,98.472729 19.2200339,98.6571127 19.163358,98.8205964 C18.5840557,100.486087 18.3912646,102.215206 18.303928,103.961974 C18.2899913,104.240174 18.1222863,104.559711 18.4744203,104.763601 C18.688581,104.887607 18.8892695,104.72691 19.1666099,104.196517 C19.2869301,103.966153 19.4007465,103.732075 19.5103819,103.496602 C19.9489235,102.554249 20.3828195,101.609573 20.8241484,100.668613 C20.9017294,100.5042 21.0062547,100.351863 21.1047407,100.198132 C21.1200711,100.173981 21.1739597,100.161906 21.2074078,100.165622 C21.2357457,100.168873 21.2784849,100.199526 21.2835951,100.224606 C21.331909,100.439178 21.3932305,100.652822 21.4113482,100.870645 C21.4420089,101.239412 21.4164583,101.614682 21.462914,101.980662 C21.6719645,103.638257 21.8982037,105.29353 22.1193327,106.949731 C22.1393086,107.096495 22.167182,107.242794 22.1973782,107.3877 C22.2563769,107.667759 22.4482389,107.833565 22.6935249,107.95014 C22.838002,108.019342 22.9875893,108.035133 23.0777133,107.874436 C23.1673728,107.714203 23.2519221,107.545611 23.3020942,107.370516 C23.79917,105.656724 24.1982242,103.923889 24.310647,102.135786 C24.3217963,101.955582 24.3733621,101.777237 24.413314,101.59982 C24.4188887,101.573346 24.4630216,101.547338 24.4946114,101.536655 C24.5220203,101.526902 24.5735861,101.526438 24.5861291,101.543158 C24.6297975,101.601213 24.6790405,101.664377 24.6934417,101.732186 C24.9972619,103.154773 25.5965401,104.478898 26.0610969,105.848074 C26.0964032,105.951645 26.1451816,106.054286 26.2037158,106.147175 C26.3119575,106.317161 26.4754815,106.393794 26.67617,106.375216 C26.8940471,106.355245 27.093342,106.158786 27.0979876,105.929816 C27.1082078,105.410569 27.1026331,104.891323 27.1007749,104.372541 C27.0961293,103.148735 27.0854445,101.924929 27.0924129,100.701588 C27.0938066,100.527422 27.1370103,100.252008 27.2457166,100.199526 C27.5142304,100.069017 27.5667253,100.402487 27.7065569,100.538569 C27.9722834,100.796334 28.2138529,101.07918 28.4647136,101.352272 C29.6795295,102.673146 31.168434,103.670768 32.5337663,104.813296 C32.5895131,104.859741 32.6633776,104.910829 32.7298093,104.911294 C32.8691763,104.913151 33.0410623,104.92662 33.1390838,104.854167 C33.2417508,104.778463 33.3286229,104.603368 33.3216546,104.477969 C33.3118989,104.303339 33.2287432,104.122671 33.1400129,103.96476 C32.9402535,103.609926 32.7140143,103.269954 32.5082157,102.917907 C32.4798777,102.869141 32.4835942,102.759532 32.5184359,102.726557 C32.5537422,102.692652 32.6643067,102.690795 32.7107624,102.721912 C33.7611253,103.421363 34.8077717,104.126851 35.8544181,104.831874 C35.9770611,104.915009 36.0899483,105.013471 36.2186306,105.085924 C36.4374368,105.209466 36.774705,105.14305 36.9317252,104.959131 C37.0631948,104.804472 37.0757378,104.520698 36.9461265,104.334456 C36.8625063,104.212772 36.7668076,104.097591 36.6683215,103.987518 C35.2537462,102.408414 34.0486859,100.664897 32.7423523,99.0008 C32.629465,98.8568229 32.5472384,98.6882303 32.4566499,98.5275332 C32.4464296,98.5089555 32.4691929,98.4615824 32.4887043,98.4388247 C32.5091448,98.4137449 32.551884,98.380305 32.5737182,98.3868072 C32.8185396,98.4666913 33.0694002,98.5368221 33.3040014,98.6403927 C34.4955895,99.1675348 35.7169093,99.6036462 36.9944404,99.871165 C37.2480884,99.9241115 37.50313,99.9826312 37.7600299,99.9988867 C38.2371297,100.028147 38.6538371,99.9399025 38.7834485,99.3742117 C38.8215421,99.2093346 38.9697357,99.1415261 39.1309369,99.2046902 C39.6846886,99.4192626 40.2314719,99.6500905 40.7856882,99.8646628 C41.443036,100.118713 42.1036357,100.365332 42.7651645,100.6087 C43.0480796,100.712735 43.3365694,100.759643 43.6362085,100.658859 C43.7978742,100.60452 43.9107615,100.352792 43.8206375,100.201848 C43.7644261,100.107102 43.7137895,99.9984222 43.6310984,99.9324714 C42.7600544,99.239059 41.876932,98.5642242 40.8632691,98.0807397 C39.8923455,97.6176906 38.930713,97.1360639 37.9662931,96.6600104 C37.9351678,96.6451483 37.8928932,96.5856997 37.8970742,96.5810552 C37.9333096,96.5364688 37.9839463,96.4616935 38.0215754,96.466338 C38.7583624,96.5536531 39.4974722,96.6242484 40.22822,96.7515056 C41.6897156,97.00602 43.145172,97.2967609 44.6052739,97.5619575 C45.003399,97.6344105 45.399666,97.7630611 45.8163734,97.6571682 C46.0333214,97.6018996 46.2340099,97.4235537 46.2744264,97.2215213 C46.3153074,97.0190244 46.2163568,96.740359 46.0193847,96.6470061 C45.7202101,96.5053511 45.4117444,96.3688051 45.0921294,96.2852054 C42.2560103,95.5416332 39.4171039,94.8119942 36.5795912,94.0735308 C36.2938888,93.9992201 36.0132965,93.9007583 35.7359561,93.8004387 C35.6969333,93.786041 35.6778865,93.6991903 35.6648789,93.6415994 C35.6620916,93.6281306 35.7178384,93.5867952 35.7498928,93.5816864 C35.9329282,93.5510332 36.115499,93.51202 36.2994635,93.5045889 C38.1920677,93.4279559 40.0749163,93.237999 41.9540484,93.0187822 C43.3189162,92.8594785 44.679603,92.6625549 46.0416834,92.4818868 C46.1889479,92.4623802 46.3376061,92.4498403 46.4825478,92.4191871 C46.9080818,92.3272275 47.118526,92.1029018 47.1110931,91.7610722 C47.1027311,91.3927694 46.8997198,91.150795 46.5122794,91.0755553 C46.2939377,91.0328266 46.0718796,91.0003156 45.850286,90.9914912 C43.0341429,90.8860628 40.2272909,90.5864975 37.4051086,90.594393 C37.3098744,90.594393 37.1695783,90.5340155 37.1333428,90.461098 C37.0994302,90.392825 37.146815,90.2367724 37.2118529,90.1768593 C37.7535261,89.6692238 38.2956639,89.1597305 38.8652105,88.6841415 C39.1160711,88.474678 39.4194267,88.3149098 39.7199949,88.1783637 C41.4760195,87.3809162 43.2408707,86.6025107 44.9978244,85.806921 C45.8428531,85.4251493 46.6799844,85.0257289 47.5143284,84.621664 C47.7108359,84.5269178 47.900375,84.4005894 48.0611117,84.2542901 C48.2088407,84.1191374 48.2046597,83.9147827 48.1400863,83.7331857" mask="url(#century-plant-b)"></path></g></svg> 