<?xml version="1.0" encoding="UTF-8"?> <svg xmlns="http://www.w3.org/2000/svg" width="72" height="58" viewBox="0 0 72 58"><path fill="#837453" d="M34.759592,36.293997 C34.905467,36.198061 34.934379,36.057443 34.946206,35.890541 C35.009288,35.033689 35.080254,34.176838 35.160419,33.319986 C35.382517,30.932105 35.584902,28.542909 35.845112,26.15897 C35.975217,24.969628 36.235426,23.796057 36.395757,22.609345 C36.49695,21.860257 36.784757,21.151909 36.824183,20.389679 C36.83601,20.191236 36.930632,19.984909 37.035767,19.811436 C37.088335,19.722071 37.247352,19.662932 37.360372,19.656361 C37.432652,19.652419 37.548301,19.757554 37.579842,19.839034 C37.656065,20.030905 37.73623,20.237233 37.742801,20.439618 C37.778284,21.73278 37.909703,23.023314 37.855821,24.317791 C37.80194,25.620152 37.737544,26.922514 37.678406,28.223561 C37.669206,28.406233 37.66395,28.588905 37.669206,28.770264 C37.670521,28.807061 37.725717,28.84123 37.755943,28.876713 C37.770399,28.854372 37.790112,28.833345 37.796683,28.809689 C37.853193,28.608618 37.917588,28.410176 37.963585,28.207791 C38.574683,25.479534 39.168696,22.748649 39.796879,20.025649 C40.354095,17.607541 40.933652,15.193375 41.52898,12.784466 C41.944264,11.107561 42.502794,9.476652 43.26371,7.920652 C43.355703,7.734037 43.450325,7.546108 43.554146,7.366064 C43.588315,7.306926 43.655338,7.2675 43.706592,7.218875 C43.74076,7.280642 43.807784,7.342409 43.805156,7.401547 C43.795956,7.740608 43.780186,8.079669 43.74996,8.417416 C43.609342,9.981301 43.342561,11.524159 43.041612,13.063074 C41.878554,19.011095 40.715497,24.959115 39.56821,30.909764 C39.311943,32.242351 39.114815,33.586767 38.896659,34.92724 C38.892717,34.95878 38.950541,35.002149 38.983396,35.035003 C38.98471,35.037632 39.020193,35.012662 39.034649,34.995578 C39.051733,34.975865 39.06619,34.952209 39.074075,34.928554 C39.302744,34.263574 39.587923,33.610422 39.662831,32.904703 C39.714085,32.43028 39.87573,31.992655 40.012406,31.543203 C40.172737,31.020155 40.30547,30.489223 40.446088,29.960919 C40.568308,29.507524 40.686585,29.055443 40.802233,28.600733 C40.96125,27.969922 41.109754,27.335169 41.27797,26.705672 C41.405446,26.227307 41.559206,25.755514 41.69194,25.278463 C41.819416,24.827696 41.940321,24.374301 42.057284,23.919591 C42.140078,23.592358 42.183446,23.251983 42.293838,22.933949 C42.98773,20.937696 43.441125,18.862591 44.259865,16.908392 C44.541102,16.235527 44.857821,15.575804 45.161399,14.912139 C45.19294,14.845115 45.245507,14.762321 45.30596,14.738666 C45.41898,14.695297 45.55697,14.6585 45.664733,14.687412 C45.733071,14.704497 45.806666,14.847743 45.806666,14.935794 C45.806666,15.219659 45.781696,15.506152 45.750156,15.788703 C45.621365,16.979358 45.51623,18.172642 45.344071,19.356726 C45.228423,20.153125 45.01421,20.935068 44.844679,21.724895 C44.822338,21.827402 44.797369,21.928595 44.786855,22.032416 C44.725088,22.713166 44.538473,23.363689 44.316375,24.006328 C44.266436,24.152203 44.250666,24.31122 44.212554,24.463666 C44.086392,24.994598 43.957602,25.526845 43.828811,26.057777 C43.761788,26.336385 43.647453,26.611051 43.630369,26.892287 C43.601456,27.371966 43.445068,27.809591 43.30445,28.25773 C43.204571,28.579706 43.154632,28.916139 43.075781,29.244686 C42.978531,29.649456 42.87471,30.052912 42.773517,30.457682 C42.685467,30.811199 42.594788,31.164716 42.51725,31.520861 C42.505423,31.58 42.560619,31.653595 42.58296,31.720618 C42.643413,31.691706 42.732777,31.67725 42.759061,31.629939 C43.090237,31.010956 43.409585,30.38803 43.739446,29.769047 C43.799899,29.656027 43.876122,29.539064 43.977315,29.464155 C44.044338,29.411588 44.182328,29.390561 44.255923,29.42473 C44.332146,29.461527 44.41494,29.582432 44.413625,29.665226 C44.412311,29.816358 44.353173,29.96749 44.312433,30.117307 C43.886635,31.679878 43.343875,33.203024 42.745919,34.70777 C42.621071,35.021861 42.518565,35.345152 42.418686,35.668443 C42.40423,35.718382 42.46074,35.788034 42.48571,35.849801 C42.546163,35.811689 42.630271,35.789348 42.661811,35.735466 C42.882595,35.350409 43.087608,34.957466 43.303135,34.571095 C44.319004,32.747 45.309902,30.909764 46.35994,29.106696 C47.25096,27.575666 48.256315,26.116916 49.368119,24.735703 C49.918764,24.05101 50.490436,23.380774 51.055538,22.707909 C51.105477,22.650084 51.176443,22.609345 51.243467,22.573861 C51.418254,22.47924 51.650865,22.613287 51.625896,22.807787 C51.599612,23.011486 51.556244,23.217814 51.487906,23.412314 C50.432612,26.341642 49.047456,29.119838 47.613676,31.877007 C47.119541,32.825851 46.628034,33.77601 46.14047,34.728797 C46.069504,34.866787 46.016936,35.013976 45.969625,35.16248 C45.959112,35.19402 45.999852,35.264986 46.032706,35.280757 C46.070818,35.30047 46.141784,35.295213 46.177267,35.270243 C46.261375,35.211105 46.341541,35.141453 46.408565,35.062601 C47.131369,34.208378 47.833146,33.334443 48.576977,32.497304 C49.700608,31.233054 50.84001,29.98326 52.00044,28.751865 C52.819179,27.883186 53.635291,27.000051 54.543396,26.227307 C55.228088,25.643807 55.886497,24.99197 56.763061,24.65028 C57.395186,24.404527 57.998399,24.087807 58.617382,23.810514 C58.747487,23.752689 58.877592,23.790801 58.955129,23.920905 C59.027409,24.040497 59.044494,24.175858 58.953815,24.28625 C58.432081,24.927574 57.918233,25.576784 57.370217,26.194453 C56.86951,26.759554 56.324122,27.283916 55.806331,27.830618 C55.197862,28.470628 54.594649,29.115895 53.995379,29.763791 C53.95201,29.811101 53.95201,29.903095 53.933612,29.975375 C54.005892,29.964861 54.093943,29.978003 54.147825,29.941206 C54.660358,29.581118 55.165007,29.211831 55.674913,28.849115 C56.995673,27.912098 58.362429,27.046047 59.738385,26.191824 C60.8975,25.474277 62.110497,24.871064 63.336635,24.287564 C64.240798,23.857824 65.188328,23.585787 66.149,23.328206 C67.334399,23.011486 68.517169,22.682939 69.728852,22.487125 C70.379375,22.383304 71.027271,22.339936 71.667281,22.547578 C71.714592,22.563348 71.793443,22.601459 71.793443,22.626429 C71.790815,22.697395 71.775044,22.793331 71.726419,22.832757 C71.276967,23.209929 70.740777,23.405743 70.183561,23.566074 C68.95348,23.919591 67.731284,24.308591 66.583997,24.882892 C65.181757,25.584669 63.790031,26.306159 62.415389,27.059189 C61.730696,27.435047 61.089372,27.891071 60.438848,28.328696 C58.422882,29.684939 56.487081,31.152889 54.6735,32.769341 C52.68776,34.542182 50.74276,36.362334 48.981747,38.366473 C48.258943,39.187841 47.609733,40.073605 46.931612,40.933084 C46.910585,40.958054 46.91847,41.039534 46.94344,41.059247 C46.97498,41.08553 47.051203,41.102615 47.082744,41.084216 C47.279872,40.959368 47.482257,40.838463 47.660987,40.689959 C48.341737,40.126172 49.035629,39.576841 49.72295,39.020939 C50.242054,38.599084 50.861038,38.282365 51.267122,37.721206 C51.832223,37.396601 52.156828,36.772361 52.779754,36.513466 C52.920372,36.455642 53.074132,36.364963 53.15824,36.245372 C53.447362,35.839287 53.87973,35.656615 54.291071,35.430574 C54.589392,35.267615 54.858801,35.05603 55.157122,34.894385 C55.638115,34.631547 56.124365,34.37528 56.621129,34.143983 C57.61597,33.681389 58.616068,33.231936 59.620108,32.78774 C60.049848,32.597182 60.482217,32.405311 60.929041,32.267321 C61.482315,32.096476 62.053987,32.049166 62.611203,32.267321 C63.180247,32.488105 63.157906,32.520959 62.813588,33.036122 C62.72948,33.159655 62.59149,33.25822 62.457443,33.333128 C61.818747,33.686645 61.176108,34.03622 60.526899,34.373966 C60.111615,34.590807 59.687132,34.785307 59.317845,35.088885 C59.077348,35.286014 58.794798,35.433203 58.52276,35.588277 C57.953717,35.911568 57.393872,36.245372 56.89448,36.672483 C56.75649,36.79076 56.600102,36.894581 56.438456,36.977375 C55.878612,37.263868 55.356879,37.595044 54.883771,38.019527 C54.614362,38.258709 54.264788,38.40327 53.955953,38.601713 C53.911271,38.629311 53.902071,38.713419 53.877102,38.771243 C53.949382,38.780443 54.030862,38.814611 54.092629,38.793584 C54.337068,38.70422 54.580193,38.60697 54.816747,38.496578 C55.096669,38.365159 55.376592,38.333618 55.640744,38.50052 C55.899639,38.66348 56.13225,38.605655 56.37669,38.480807 C56.563304,38.384872 56.752548,38.298135 56.944419,38.212713 C57.802585,37.830284 58.771142,37.781659 59.613538,37.350605 C60.211494,37.35849 60.78448,37.112736 61.386379,37.174503 C61.617676,37.198159 61.846345,37.233642 62.072385,37.282267 C62.219575,37.313807 62.269514,37.445226 62.282656,37.580588 C62.297112,37.718578 62.256372,37.853939 62.123639,37.910449 C61.717554,38.082608 61.315413,38.292878 60.889615,38.3875 C60.348169,38.507091 59.830379,38.667422 59.334929,38.909233 C58.654179,39.244351 57.961602,39.543986 57.208571,39.691176 C56.982531,39.735858 56.76569,39.847564 56.554105,39.947443 C55.893068,40.258905 55.235973,40.580882 54.57625,40.897601 C53.846875,41.249804 53.137213,41.623034 52.46172,42.081686 C51.731031,42.578449 50.92149,42.959564 50.146119,43.391932 C50.009443,43.468155 49.847798,43.520723 49.73872,43.625858 C49.205159,44.144963 48.540179,44.453797 47.897541,44.802057 C47.781892,44.863824 47.658358,44.91902 47.562423,45.004443 C47.032804,45.474922 46.445362,45.858666 45.810608,46.174071 C45.740956,46.206926 45.668676,46.251608 45.622679,46.310747 C45.30596,46.712889 44.878848,46.958642 44.439909,47.193882 C44.357115,47.239878 44.296663,47.338443 44.242781,47.423865 C44.221754,47.455405 44.240152,47.529 44.265122,47.564483 C44.291406,47.599966 44.359744,47.639392 44.391284,47.628878 C44.562129,47.56974 44.73823,47.514544 44.893304,47.425179 C47.459916,45.958544 50.161889,44.76526 52.840206,43.524666 C53.381652,43.273655 53.967781,43.118581 54.531568,42.910939 C54.971821,42.74798 55.40419,42.561365 55.845757,42.403662 C56.337264,42.228875 56.834027,42.072486 57.329477,41.910841 C57.403071,41.887186 57.487179,41.8885 57.558146,41.858274 C58.357173,41.529726 59.182483,41.294486 60.027507,41.115757 C60.433592,41.030334 60.838362,40.930456 61.243132,40.837149 C61.345639,40.813493 61.450774,40.800351 61.549338,40.766182 C62.2682,40.519115 63.018602,40.471804 63.766375,40.37324 C64.671852,40.252334 65.573385,40.207652 66.48149,40.258905 C66.869176,40.281247 67.254233,40.337757 67.637977,40.394267 C67.768081,40.412666 67.875845,40.48626 67.890301,40.647905 C67.911328,40.871318 67.850875,41.052676 67.693173,41.117071 C67.549926,41.177524 67.396166,41.23272 67.245034,41.244547 C66.819237,41.277402 66.430237,41.419334 66.047808,41.594122 C65.616754,41.79125 65.179129,41.951581 64.69945,41.979179 C64.547004,41.988378 64.3985,42.060659 64.246054,42.097456 C63.867568,42.192078 63.487767,42.278814 63.110595,42.376064 C62.858271,42.440459 62.612517,42.540338 62.357565,42.588963 C61.356152,42.77952 60.42045,43.201375 59.428237,43.41953 C59.174598,43.476041 58.917017,43.547007 58.684406,43.658713 C57.809156,44.076625 56.890538,44.373632 55.977176,44.690351 C55.607889,44.819142 55.238602,44.957132 54.886399,45.125348 C53.141156,45.95723 51.401169,46.800939 49.659869,47.639392 C49.566561,47.684074 49.47194,47.734014 49.379946,47.781324 C49.085568,47.932456 48.79776,48.092787 48.595375,48.368767 C48.931808,48.341169 49.26824,48.317514 49.603358,48.280716 C49.704551,48.270203 49.801801,48.220264 49.900365,48.18478 C50.715163,47.895659 51.560186,47.762926 52.411781,47.632821 C53.112244,47.526372 53.806135,47.510601 54.506598,47.515858 C54.737896,47.517172 54.977078,47.542142 55.199176,47.603909 C55.301683,47.632821 55.40419,47.765554 55.448872,47.874632 C55.50144,48.006051 55.412075,48.129584 55.289855,48.195294 C54.898227,48.40425 54.506598,48.617149 54.107085,48.807706 C53.5157,49.087628 52.921686,49.357037 52.321102,49.615932 C52.059578,49.728953 51.786227,49.83803 51.506304,49.885341 C51.010855,49.969449 50.554831,50.149493 50.092237,50.33348 C49.461426,50.581861 48.813531,50.792132 48.181406,51.035257 C47.596592,51.259983 47.007835,51.482081 46.442733,51.748861 C44.597612,52.614912 42.76169,53.500676 40.923139,54.382497 C40.005835,54.821436 39.087217,55.261689 38.173855,55.71377 C37.942558,55.828105 37.70469,55.959524 37.518075,56.132997 C36.82024,56.778264 35.962075,57.072642 35.07894,57.32628 C33.813375,57.692939 32.600379,57.444557 31.411038,56.995105 C31.117973,56.884713 30.844622,56.729639 30.5555,56.608733 C30.025882,56.389264 29.719676,55.912213 29.318848,55.545554 C28.782659,55.055361 28.301666,54.500774 27.753649,54.023723 C27.486869,53.791111 27.133352,53.636037 26.795605,53.512503 C26.306727,53.332459 25.802078,53.191841 25.294801,53.069622 C23.061994,52.533432 20.809473,52.105007 18.531983,51.802743 C17.757926,51.700236 16.994382,51.525449 16.226896,51.376946 C15.71699,51.277068 15.208399,51.16799 14.699808,51.05497 C14.548676,51.020801 14.398858,50.969547 14.255612,50.905152 C14.092652,50.832872 13.938892,50.736936 13.78119,50.651514 C13.827186,50.403132 14.045342,50.345307 14.229328,50.258571 C14.346291,50.204689 14.47771,50.160007 14.603872,50.157378 C16.004798,50.119267 17.403095,49.977334 18.804021,50.107439 C19.893483,50.209946 20.98426,50.30851 22.073723,50.403132 C22.174916,50.411017 22.278737,50.388676 22.378615,50.36502 C22.3957,50.361078 22.414098,50.250686 22.400956,50.242801 C22.202514,50.120581 22.009328,49.98522 21.795115,49.899797 C20.557149,49.408291 19.32444,48.90627 18.073331,48.451561 C16.502875,47.881203 14.917963,47.351584 13.305453,46.907389 C10.727014,46.197726 8.103892,45.811355 5.432146,45.723304 C4.393936,45.689135 3.355727,45.639196 2.316203,45.589257 C2.134845,45.580057 1.944288,45.564287 1.777385,45.501206 C1.67225,45.463095 1.575,45.343503 1.523747,45.23574 C1.460666,45.105635 1.53426,44.970274 1.657794,44.907193 C2.238666,44.614128 2.799825,44.265868 3.467433,44.196216 C3.597538,44.18176 3.732899,44.171247 3.853804,44.130507 C5.416375,43.608774 7.023629,43.586432 8.640081,43.694196 C10.493088,43.81773 12.309298,44.167304 14.113679,44.59573 C16.251865,45.104321 18.325656,45.810041 20.388933,46.551243 C20.609717,46.631409 20.833129,46.703689 21.060483,46.765456 C21.12225,46.782541 21.199788,46.744429 21.26944,46.731287 C21.239213,46.639294 21.224757,46.536787 21.17219,46.45925 C21.134078,46.400111 21.047342,46.369885 20.981632,46.329145 C19.454544,45.428926 17.930085,44.522135 16.39774,43.631115 C14.59073,42.581078 12.708811,41.67823 10.804551,40.822693 C9.640179,40.298331 8.441639,39.84625 7.244413,39.396797 C5.924967,38.900034 4.585808,38.454524 3.263733,37.963017 C2.383227,37.635784 1.517176,37.267811 0.648497,36.911666 C0.58673,36.886696 0.510507,36.811787 0.505960624,36.753963 C0.501308,36.696139 0.56176,36.608088 0.616956,36.571291 C0.815399,36.4425 1.017784,36.375476 1.276679,36.409645 C2.229467,36.535807 3.191453,36.602831 4.140298,36.740821 C4.861788,36.845956 5.580649,36.991831 6.285054,37.177132 C8.512605,37.759318 10.665247,38.568858 12.771892,39.486162 C15.571115,40.704416 18.283602,42.105341 20.926436,43.639 C21.691294,44.083196 22.454838,44.526078 23.222325,44.965017 C23.253865,44.983416 23.31169,44.955818 23.357686,44.950561 C23.349801,44.901936 23.359,44.834912 23.330088,44.807314 C23.257808,44.735034 23.172385,44.675895 23.085649,44.619385 C21.781973,43.762534 20.488811,42.88597 19.168051,42.052774 C17.647534,41.096044 16.13096,40.131429 14.538163,39.291662 C13.455271,38.721304 12.390777,38.112834 11.307885,37.542476 C10.616622,37.178446 9.90696,36.84727 9.198612,36.516095 C8.159088,36.031159 7.119565,35.544909 6.068213,35.088885 C5.585906,34.879929 5.143024,34.614463 4.722483,34.310885 C4.647575,34.258318 4.562152,34.112443 4.588436,34.054618 C4.634433,33.949483 4.746139,33.856176 4.853902,33.802294 C4.93801,33.758926 5.065487,33.752355 5.154852,33.783895 C5.550423,33.927142 5.965706,33.961311 6.377048,34.012564 C6.557092,34.034905 6.734507,34.087473 6.909294,34.137412 C8.666365,34.65126 10.362983,35.308355 12.020176,36.092926 C14.168875,37.10748 16.249237,38.241625 18.316456,39.405997 C19.178565,39.890932 20.018331,40.415294 20.869926,40.919943 C21.003973,41.000108 21.136706,41.086845 21.281267,41.142041 C21.365375,41.173581 21.47051,41.148611 21.566446,41.149926 C21.542791,41.052676 21.540163,40.943598 21.494166,40.85949 C21.431085,40.747784 21.345663,40.643963 21.252355,40.554598 C19.930281,39.302176 18.620034,38.033983 17.274304,36.805216 C15.872065,35.522568 14.400173,34.31877 12.898054,33.153084 C12.058288,32.501247 11.208007,31.858608 10.473375,31.083236 C10.033122,30.871652 9.870163,30.374889 9.471963,30.112051 C9.333973,30.021372 9.376027,29.787446 9.536358,29.723051 C9.673034,29.667855 9.834679,29.628429 9.980554,29.641571 C10.561426,29.69151 11.084473,29.935949 11.612777,30.163304 C13.03473,30.775716 14.333149,31.594456 15.559288,32.531473 C16.571213,33.306845 17.572625,34.094044 18.57798,34.879929 C18.658146,34.94301 18.710713,35.04026 18.78825,35.109912 C18.818477,35.136196 18.918355,35.144081 18.922298,35.134882 C18.947267,35.071801 18.984065,34.987693 18.961723,34.936439 C18.906527,34.820791 18.836875,34.705142 18.743568,34.618405 C18.22972,34.137412 17.819693,33.567054 17.358413,33.042693 C17.082433,32.73123 16.813024,32.41451 16.527845,32.112247 C15.886521,31.431497 15.237311,30.757318 14.588102,30.081824 C14.300294,29.782189 14.00723,29.487811 13.711538,29.194747 C13.051815,28.535024 12.363179,27.902899 11.737625,27.211635 C11.20275,26.617622 10.620565,26.05252 10.247335,25.328402 C10.203967,25.248236 10.190825,25.093162 10.23945,25.03928 C10.314358,24.953858 10.451034,24.918375 10.567997,24.876321 C10.610051,24.861865 10.674446,24.880264 10.717815,24.903919 C11.47873,25.300804 12.251473,25.676662 12.93748,26.202338 C13.906038,26.946169 14.824656,27.745196 15.695963,28.604676 C16.65795,29.554834 17.644906,30.477395 18.538554,31.493264 C18.623977,31.589199 18.742254,31.654909 18.847389,31.731132 C18.865788,31.745588 18.896014,31.748216 18.919669,31.754787 C18.920983,31.716676 18.938068,31.666736 18.919669,31.639139 C18.760652,31.399956 18.606892,31.158145 18.429477,30.932105 C15.811612,27.573037 13.039987,24.348017 10.009467,21.349037 C8.859551,20.210949 7.721463,19.062348 6.588632,17.905861 C6.243,17.552345 5.93548,17.159402 5.620075,16.778287 C5.578021,16.727034 5.583277,16.636355 5.566193,16.56276 C5.64373,16.565389 5.727838,16.549618 5.796176,16.575902 C6.850156,16.978044 7.844997,17.493206 8.784642,18.116132 C9.966098,18.898074 11.016135,19.839034 12.047774,20.80102 C14.95476,23.510878 17.647534,26.424436 20.186548,29.477297 C21.406115,30.941304 22.56523,32.456564 23.749315,33.948169 C23.79794,34.008622 23.837365,34.078274 23.891247,34.134784 C23.995068,34.242547 24.060777,34.410764 24.247392,34.396307 C24.38144,34.38448 24.462919,34.059875 24.366983,33.833834 C24.172483,33.377811 23.968784,32.924416 23.751943,32.478905 C23.386598,31.725875 23.01994,30.974159 22.629625,30.236899 C22.335247,29.684939 22.001443,29.154007 21.682095,28.615189 C21.374575,28.100027 21.069683,27.583551 20.754277,27.073645 C20.534808,26.718814 20.302196,26.373182 20.069585,26.027551 C19.909254,25.789682 19.72001,25.570213 19.57545,25.324459 C19.377007,24.984084 19.179879,24.648966 18.874987,24.388757 C18.835561,24.355902 18.79745,24.317791 18.768538,24.274422 C18.283602,23.527963 17.622565,22.932635 17.049578,22.261084 C16.665835,21.811632 16.149358,21.464686 15.903605,20.893014 C15.857608,20.782622 15.72619,20.709027 15.631568,20.618348 C15.402899,20.398878 15.423926,20.221463 15.688078,20.086101 C15.886521,19.983595 16.078392,19.965196 16.288663,20.053247 C17.208595,20.435676 18.083845,20.89827 18.825048,21.567193 C19.441402,22.124409 19.982848,22.75522 20.534808,23.378145 C21.110423,24.027355 21.553304,24.761986 22.084237,25.43748 C22.726875,26.254905 23.291977,27.143297 23.796625,28.05403 C24.31573,28.992361 24.870318,29.904409 25.440676,30.809885 C25.77448,31.338189 26.036004,31.91249 26.318554,32.472334 C26.882342,33.592024 27.429044,34.720912 28.099281,35.782777 C28.237271,36.002247 28.40023,36.205946 28.557933,36.412274 C28.586845,36.449071 28.645983,36.462213 28.690666,36.485868 C28.709065,36.413588 28.759004,36.332108 28.740605,36.270341 C28.668325,36.020645 28.596044,35.768321 28.488281,35.531767 C28.132135,34.745882 27.811473,33.953426 27.610402,33.107088 C27.497382,32.630037 27.250315,32.184527 27.043987,31.73376 C26.781149,31.162088 26.581392,30.572017 26.407919,29.96749 C26.262044,29.468098 26.062288,28.981848 25.848075,28.507426 C25.490615,27.720226 25.187038,26.918571 24.946541,26.086689 C24.804608,25.588611 24.570683,25.114189 24.35647,24.638453 C23.99244,23.827598 23.624467,23.022 23.436538,22.144122 C23.359,21.790605 23.228896,21.435774 23.052794,21.120368 C22.772872,20.61572 22.787328,20.065074 22.713733,19.527571 C22.70322,19.44872 22.780757,19.333071 22.849095,19.272618 C22.981828,19.159598 23.171071,19.18851 23.265693,19.317301 C23.32746,19.401409 23.38397,19.489459 23.428652,19.584081 C23.577156,19.892916 23.770342,20.158382 24.022666,20.400193 C24.223737,20.593378 24.382754,20.849645 24.504973,21.103284 C25.142355,22.420101 25.769223,23.742176 26.38295,25.069507 C26.569565,25.471649 26.72201,25.892189 26.848173,26.316672 C27.121524,27.222149 27.523666,28.071115 27.924494,28.921395 C28.404173,29.938578 28.862825,30.962331 29.155889,32.051794 C29.224227,32.30149 29.339875,32.541986 29.458152,32.774598 C29.518605,32.894189 29.52649,33.117601 29.739389,33.05452 C29.782757,33.041378 29.757788,32.823223 29.7775,32.702318 C29.814298,32.473649 29.868179,32.258122 29.801156,32.012368 C29.756473,31.857294 29.826125,31.649652 29.898406,31.490635 C30.033767,31.188372 30.015369,30.893993 29.983828,30.574645 C29.778815,28.408861 29.288622,26.296959 28.756375,24.196885 C27.68794,19.998051 26.599791,15.803159 25.48273,11.616152 C24.897916,9.421456 24.225051,7.250416 23.61001,5.064919 C23.268321,3.859807 22.950288,2.646811 22.833325,1.393074 C22.820183,1.265598 22.822811,1.136807 22.824125,1.008017 C22.824125,0.98699 22.846467,0.950193 22.863551,0.947564 C22.901663,0.939202464 22.962115,0.931794 22.9792,0.952821 C23.617896,1.721622 24.100203,2.587672 24.503659,3.495777 C25.268517,5.218679 25.811277,7.021747 26.376379,8.812986 C27.059757,10.980084 27.715538,13.155068 28.352919,15.333993 C29.087551,17.840152 29.789328,20.354196 30.502933,22.865611 C31.102203,24.974885 31.697531,27.085473 32.298115,29.194747 C32.332284,29.31828 32.390108,29.436557 32.442676,29.556149 C32.451875,29.575861 32.483416,29.587689 32.503129,29.603459 C32.517585,29.583747 32.542554,29.56272 32.542554,29.544321 C32.537298,29.259142 32.535983,28.973963 32.516271,28.690098 C32.434791,27.499443 32.388794,26.304845 32.250804,25.12076 C32.156183,24.324361 32.119385,23.522706 31.986652,22.727622 C31.847348,21.91151 31.817122,21.078314 31.733014,20.251689 C31.693588,19.865318 31.667304,19.473689 31.588453,19.093889 C31.417608,18.280405 31.436007,17.445895 31.269105,16.631098 C31.198139,16.285466 31.244135,15.916179 31.156085,15.55872 C31.116659,15.399703 31.211281,15.205203 31.254649,15.029101 C31.279619,14.927909 31.432065,14.913453 31.504345,15.004132 C31.56874,15.085611 31.641021,15.165777 31.684389,15.25777 C31.939342,15.801845 32.185095,16.349861 32.434791,16.896564 C32.445304,16.92022 32.45976,16.942561 32.465017,16.96753 C32.600379,17.654851 32.786994,18.330345 32.951267,19.008466 C33.016977,19.281818 33.010406,19.573568 33.120798,19.844291 C33.169423,19.963882 33.198335,20.095301 33.211477,20.222777 C33.282443,20.893014 33.390206,21.556679 33.491399,22.221659 C33.621504,23.066682 33.668815,23.923534 33.760808,24.773814 C33.848858,25.572841 33.960565,26.370554 34.039416,27.169581 C34.114325,27.917355 34.16295,28.669071 34.218146,29.419473 C34.274656,30.169875 34.328538,30.920277 34.377163,31.670679 C34.425788,32.422395 34.467842,33.174111 34.51121,33.925828 C34.548007,34.572409 34.574291,35.21899 34.625544,35.864257 C34.637372,36.014074 34.731994,36.156007 34.78719,36.301882 C34.716223,36.435929 34.60846,36.56472 34.692568,36.730307 C34.714909,36.772361 34.759592,36.801274 34.79376,36.836757 C34.822673,36.802588 34.879183,36.761848 34.873926,36.73425 C34.8437,36.585747 34.799017,36.439872 34.759592,36.293997"></path></svg> 